<?xml version="1.0" encoding="utf-8"?>
<!-- Generator: Adobe Illustrator 12.0.0, SVG Export Plug-In . SVG Version: 6.00 Build 51448)  -->
<!DOCTYPE svg PUBLIC "-//W3C//DTD SVG 1.1//EN" "http://www.w3.org/Graphics/SVG/1.1/DTD/svg11.dtd" [
	<!ENTITY ns_svg "http://www.w3.org/2000/svg">
	<!ENTITY ns_xlink "http://www.w3.org/1999/xlink">
]>
<svg  version="1.1" id="Layer_1" xmlns="&ns_svg;" xmlns:xlink="&ns_xlink;" width="1523.643" height="1258.418"
	 viewBox="0 0 1523.643 1258.418" overflow="visible" enable-background="new 0 0 1523.643 1258.418" xml:space="preserve">
<path fill="#1D427C" d="M78.174,629.199C78.174,281.699,359.873,0,707.373,0c347.5,0,629.2,281.699,629.2,629.199
	s-281.699,629.219-629.2,629.219C359.873,1258.418,78.174,976.699,78.174,629.199"/>
<path fill="#FFFFFF" d="M706.143,56.338c0-3.32,2.676-5.996,5.996-5.996s5.996,2.676,5.996,5.996s-2.676,5.996-5.996,5.996
	S706.143,59.658,706.143,56.338"/>
<path fill="#FFFFFF" d="M739.434,134.453c0-3.311,2.705-6.016,6.025-6.016s5.996,2.705,5.996,6.016c0,3.32-2.676,6.006-5.996,6.006
	S739.434,137.773,739.434,134.453"/>
<path fill="#FFFFFF" d="M667.334,126.26c0-3.32,2.705-6.006,6.025-6.006c3.301,0,5.996,2.686,5.996,6.006s-2.695,6.016-5.996,6.016
	C670.039,132.275,667.334,129.58,667.334,126.26"/>
<path fill="#FFFFFF" d="M685.381,179.795c0-3.32,2.676-5.996,5.996-5.996s5.996,2.676,5.996,5.996s-2.676,6.006-5.996,6.006
	S685.381,183.115,685.381,179.795"/>
<path fill="#FFFFFF" d="M740,207.1c0-3.301,2.676-6.006,5.996-6.006s6.025,2.705,6.025,6.006c0,3.34-2.705,6.016-6.025,6.016
	S740,210.439,740,207.1"/>
<path fill="#FFFFFF" d="M832.295,263.379c0-3.32,2.705-6.025,6.025-6.025s6.016,2.705,6.016,6.025s-2.695,5.996-6.016,5.996
	S832.295,266.699,832.295,263.379"/>
<path fill="#FFFFFF" d="M584.717,176.182c0-2.9,2.363-5.264,5.264-5.264s5.254,2.363,5.254,5.264s-2.354,5.254-5.254,5.254
	S584.717,179.082,584.717,176.182"/>
<path fill="#FFFFFF" d="M600.039,188.193c0-2.871,2.354-5.234,5.264-5.234c2.871,0,5.234,2.363,5.234,5.234
	c0,2.9-2.363,5.264-5.234,5.264C602.393,193.457,600.039,191.094,600.039,188.193"/>
<path fill="#FFFFFF" d="M615.117,200.4c0-2.822,2.275-5.098,5.078-5.098s5.088,2.275,5.088,5.098c0,2.793-2.285,5.078-5.088,5.078
	S615.117,203.193,615.117,200.4"/>
<path fill="#FFFFFF" d="M589.072,214.678c0-2.764,2.246-5,4.98-5c2.764,0,5,2.236,5,5s-2.236,5-5,5
	C591.318,219.678,589.072,217.441,589.072,214.678"/>
<polyline fill="#FFFFFF" points="817.061,120.254 833.857,116.338 837.754,99.541 841.68,116.338 858.477,120.254 841.68,123.76 
	837.754,140.977 834.258,123.359 817.061,120.254 "/>
<path fill="#FFFFFF" d="M829.717,120.254c0-4.434,3.604-8.057,8.037-8.057c4.443,0,8.066,3.623,8.066,8.057
	c0,4.443-3.623,8.047-8.066,8.047C833.32,128.301,829.717,124.697,829.717,120.254"/>
<polyline fill="#FFFFFF" points="526.66,309.756 543.457,305.84 547.373,289.033 551.299,305.84 568.096,309.756 551.299,313.281 
	547.373,330.479 543.877,312.861 526.66,309.756 "/>
<path fill="#FFFFFF" d="M539.336,309.756c0-4.434,3.604-8.037,8.037-8.037c4.463,0,8.066,3.604,8.066,8.037
	c0,4.463-3.604,8.066-8.066,8.066C542.939,317.822,539.336,314.219,539.336,309.756"/>
<path fill="#FFFFFF" d="M473.516,298.916c0-2.92,2.363-5.254,5.264-5.254s5.254,2.334,5.254,5.254c0,2.9-2.354,5.244-5.254,5.244
	S473.516,301.816,473.516,298.916"/>
<path fill="#FFFFFF" d="M494.795,332.334c0-2.9,2.363-5.234,5.264-5.234s5.264,2.334,5.264,5.234s-2.363,5.264-5.264,5.264
	S494.795,335.234,494.795,332.334"/>
<path fill="#FFFFFF" d="M243.174,918.037c0-3.32,2.705-6.016,6.006-6.016c3.32,0,6.016,2.695,6.016,6.016s-2.695,6.006-6.016,6.006
	C245.879,924.043,243.174,921.357,243.174,918.037"/>
<path fill="#FFFFFF" d="M478.32,762.822c0-3.32,2.676-6.025,5.996-6.025s6.025,2.705,6.025,6.025s-2.705,5.996-6.025,5.996
	S478.32,766.143,478.32,762.822"/>
<path fill="#FFFFFF" d="M320.459,903.516c0-3.32,2.676-6.016,5.996-6.016s6.025,2.695,6.025,6.016c0,3.301-2.705,6.006-6.025,6.006
	S320.459,906.816,320.459,903.516"/>
<path fill="#FFFFFF" d="M299.98,947.754c0-3.32,2.695-5.996,5.996-5.996c3.34,0,6.025,2.676,6.025,5.996s-2.686,6.025-6.025,6.025
	C302.676,953.779,299.98,951.074,299.98,947.754"/>
<path fill="#FFFFFF" d="M332.334,971.543c0-3.32,2.705-6.006,6.025-6.006s5.996,2.686,5.996,6.006c0,3.311-2.676,5.996-5.996,5.996
	S332.334,974.854,332.334,971.543"/>
<path fill="#FFFFFF" d="M408.359,945.156c0-2.939,2.373-5.322,5.322-5.322c2.939,0,5.313,2.383,5.313,5.322
	c0,2.92-2.373,5.303-5.313,5.303C410.732,950.459,408.359,948.076,408.359,945.156"/>
<path fill="#FFFFFF" d="M478.975,880.4c0-3.32,2.686-6.025,6.006-6.025s6.016,2.705,6.016,6.025c0,3.301-2.695,5.996-6.016,5.996
	S478.975,883.701,478.975,880.4"/>
<polyline fill="#FFFFFF" points="469.434,1100.117 486.24,1096.201 490.156,1079.395 494.072,1096.201 510.879,1100.117 
	494.072,1103.613 490.156,1120.84 486.66,1103.223 469.434,1100.117 "/>
<path fill="#FFFFFF" d="M482.119,1100.117c0-4.443,3.594-8.037,8.037-8.037c4.463,0,8.057,3.594,8.057,8.037
	s-3.594,8.057-8.057,8.057C485.713,1108.174,482.119,1104.561,482.119,1100.117"/>
<path fill="#FFFFFF" d="M456.494,1012.1c0-2.9,2.344-5.264,5.264-5.264c2.9,0,5.244,2.363,5.244,5.264s-2.344,5.234-5.244,5.234
	C458.838,1017.334,456.494,1015,456.494,1012.1"/>
<path fill="#FFFFFF" d="M529.98,1037.422c0-2.92,2.354-5.264,5.254-5.264s5.264,2.344,5.264,5.264c0,2.9-2.363,5.234-5.264,5.234
	S529.98,1040.322,529.98,1037.422"/>
<path fill="#FFFFFF" d="M517.734,981.055c0-2.9,2.344-5.254,5.264-5.254c2.9,0,5.264,2.354,5.264,5.254s-2.363,5.264-5.264,5.264
	C520.078,986.318,517.734,983.955,517.734,981.055"/>
<path fill="#FFFFFF" d="M669.619,1017.002c0-2.9,2.363-5.264,5.254-5.264c2.91,0,5.264,2.363,5.264,5.264s-2.354,5.234-5.264,5.234
	C671.982,1022.236,669.619,1019.902,669.619,1017.002"/>
<path fill="#FFFFFF" d="M792.1,970.439c0-2.9,2.363-5.264,5.273-5.264s5.244,2.363,5.244,5.264s-2.334,5.254-5.244,5.254
	S792.1,973.34,792.1,970.439"/>
<polyline fill="#FFFFFF" points="1163.174,839.297 1179.981,835.381 1183.897,818.574 1187.823,835.381 1204.62,839.297 
	1187.823,842.822 1183.897,860.02 1180.401,842.402 1163.174,839.297 "/>
<path fill="#FFFFFF" d="M1175.86,839.297c0-4.443,3.604-8.037,8.037-8.037c4.463,0,8.066,3.594,8.066,8.037
	s-3.604,8.057-8.066,8.057C1179.463,847.354,1175.86,843.74,1175.86,839.297"/>
<path fill="#FFFFFF" d="M1025.899,879.941c0-2.9,2.363-5.264,5.264-5.264c2.891,0,5.254,2.363,5.254,5.264s-2.363,5.254-5.254,5.254
	C1028.262,885.195,1025.899,882.842,1025.899,879.941"/>
<path fill="#FFFFFF" d="M976.124,944.297c0-2.9,2.354-5.254,5.254-5.254s5.264,2.354,5.264,5.254s-2.363,5.264-5.264,5.264
	S976.124,947.197,976.124,944.297"/>
<path fill="#FFFFFF" d="M975.284,868.779c0-2.9,2.334-5.264,5.234-5.264c2.92,0,5.264,2.363,5.264,5.264s-2.344,5.254-5.264,5.254
	C977.618,874.033,975.284,871.68,975.284,868.779"/>
<path fill="#FFFFFF" d="M1000.157,1079.883c0-2.9,2.363-5.244,5.264-5.244s5.254,2.344,5.254,5.244c0,2.91-2.354,5.273-5.254,5.273
	S1000.157,1082.793,1000.157,1079.883"/>
<path fill="#FFFFFF" d="M1175.557,995.322c0-2.9,2.363-5.264,5.283-5.264c2.9,0,5.234,2.363,5.234,5.264s-2.334,5.254-5.234,5.254
	C1177.92,1000.576,1175.557,998.223,1175.557,995.322"/>
<path fill="#FFFFFF" d="M1021.602,837.881c0-2.9,2.354-5.264,5.254-5.264c2.92,0,5.264,2.363,5.264,5.264s-2.344,5.254-5.264,5.254
	C1023.956,843.135,1021.602,840.781,1021.602,837.881"/>
<path fill="#FFFFFF" d="M1159.776,964.902c0-2.9,2.344-5.264,5.244-5.264s5.264,2.363,5.264,5.264c0,2.891-2.363,5.254-5.264,5.254
	S1159.776,967.793,1159.776,964.902"/>
<path fill="#FFFFFF" d="M1112.579,933.994c0-2.9,2.344-5.254,5.244-5.254c2.891,0,5.254,2.354,5.254,5.254s-2.363,5.264-5.254,5.264
	C1114.922,939.258,1112.579,936.895,1112.579,933.994"/>
<path fill="#FFFFFF" d="M1170.059,882.52c0-2.9,2.363-5.264,5.264-5.264c2.891,0,5.254,2.363,5.254,5.264s-2.363,5.234-5.254,5.234
	C1172.422,887.754,1170.059,885.42,1170.059,882.52"/>
<path fill="#FFFFFF" d="M1204.395,868.779c0-2.9,2.363-5.264,5.264-5.264s5.234,2.363,5.234,5.264s-2.334,5.254-5.234,5.254
	S1204.395,871.68,1204.395,868.779"/>
<path fill="#FFFFFF" d="M1115.997,833.594c0-2.9,2.363-5.254,5.264-5.254s5.254,2.354,5.254,5.254s-2.354,5.264-5.254,5.264
	S1115.997,836.494,1115.997,833.594"/>
<path fill="#FFFFFF" d="M1093.702,795.84c0-2.92,2.334-5.264,5.254-5.264c2.9,0,5.264,2.344,5.264,5.264
	c0,2.9-2.363,5.254-5.264,5.254C1096.036,801.094,1093.702,798.74,1093.702,795.84"/>
<path fill="#FFFFFF" d="M512.559,632.578l21.982,31.738c0,0,31.24,43.037,51.934,69.98c20.283,26.377,53.086,66.777,53.086,66.777
	l12.48,14.824c0,0,33.193,19.863,50.215,34.375c19.346,16.504,32.363,31.865,24.297,44.404c-6.572,10.244-26.416,4.238-41.973-8.018
	c-23.721-18.701-47.461-61.143-47.461-61.143l-12.227-17.1c0,0-30.791-39.6-50.215-65.156
	c-19.639-25.879-49.902-66.729-49.902-66.729l-19.541-31.758L512.559,632.578"/>
<path fill="#E32630" d="M1523.643,58.662c0,0-26.201,50.654-117.227,126.992c-78.037,66.123-216.279,152.041-344.355,210.02
	C759.395,532.676,415.039,618.301,248.799,691.182C110.117,752.002,0,816.035,0,816.035l19.834,8.262"/>
<path fill="#E32630" d="M19.834,824.297c0,0,27.1-21.963,95.645-51.299c57.637-24.277,163.018-64.463,298.643-99.238
	c106.934-22.764,207.5-54.98,309.951-79.824c207.725-50.361,421.709-137.734,553.106-239.414
	c176.318-152.207,246.465-295.859,246.465-295.859"/>
<path fill="#FFFFFF" d="M783.379,588.594c0-41.514,25-73.691,89.98-77.539c33.496-1.953,47.734,3.145,62.198,9.023l23.926-16.943
	l2.432,70.82c0,0-34.414-20.479-72.657-22.695c-31.123-1.826-35.361,13.76-35.361,13.76c-7.422,18.555,54.238,28.779,96.124,52.695
	c36.377,20.801,34.141,56.807,34.141,56.807c4.072,65.693-77.198,80.918-115.04,77.715c-29.639-0.996-53.721-9.775-53.721-9.775
	l-26.885,19.541l-0.361-72.148c11.104,9.043,29.941,19.541,52.705,26.104c30.82,8.877,62.021,4.219,69.082-15.078
	c7.041-23.018-48.623-30.059-68.027-41.699C808.594,646.318,783.379,621.738,783.379,588.594"/>
<polyline fill="#FFFFFF" points="549.199,539.775 524.775,515.342 637.119,515.342 720.156,720.479 747.021,747.354 
	600.479,747.354 627.334,720.479 617.578,693.613 534.541,693.613 527.217,722.939 546.758,747.354 471.035,747.354 497.9,720.479 
	527.217,617.92 558.955,617.92 546.758,659.434 602.92,659.434 568.74,576.396 558.955,617.92 527.217,617.92 "/>
<polyline fill="#FFFFFF" points="1076.719,539.775 1052.295,515.342 1164.639,515.342 1247.657,720.479 1274.522,747.354 
	1127.999,747.354 1154.854,720.479 1145.079,693.613 1062.061,693.613 1054.737,722.939 1074.258,747.354 998.555,747.354 
	1025.42,720.479 1054.737,617.92 1086.475,617.92 1074.258,659.434 1130.44,659.434 1096.241,576.396 1086.475,617.92 
	1054.737,617.92 "/>
<path fill="#E32630" d="M1523.643,61.094c0,0-156.445,208.926-187.07,235.889"/>
<path fill="#E32630" d="M1336.573,296.982c-158.252,139.238-510.293,375.752-566.094,410.176
	c-127.744,78.799-317.656,212.52-403.965,289.639c-76.992,68.818-189.551,173.74-189.551,173.74l-1.426,21.299
	c0,0,110.195-115.156,302.08-250.117c95.459-66.104,268.701-184.541,385.664-256.836
	c121.817-75.283,252.061-175.146,339.659-243.145c104.58-81.182,168.975-152.041,196.738-183.74
	c66.816-76.338,123.965-196.904,123.965-196.904"/>
<path fill="#FFFFFF" d="M482.637,607.539c-61.777-103.896-138.154-306.182-48.223-375.479
	c54.229-41.807,198.906-47.539,442.061,251.582c251.163,308.936,172.266,472.314,146.504,490.84c-56.445,40.615-146.524,0-146.524,0
	l-24.434-9.766l21.992,4.883c0,0,90.586,36.777,141.641-4.883c47.52-38.76,58.604-217.363-151.417-473.799
	c-130.879-159.805-310.02-311.777-415.186-251.543c-105.234,60.303,5.146,299.824,46.709,363.584L482.637,607.539"/>
<polyline fill="#FFFFFF" points="944.815,600.82 959.483,625.234 966.817,620.361 952.159,593.496 944.815,600.82 "/>
<polyline fill="#FFFFFF" points="373.359,659.434 373.359,539.775 348.936,515.342 427.08,515.342 405.098,539.775 405.098,720.479 
	431.982,747.354 329.395,747.354 241.475,598.379 241.475,720.479 263.457,747.354 180.42,747.354 207.275,720.479 207.275,539.775 
	185.303,515.342 287.881,515.342 373.359,659.434 "/>
<polyline fill="#FFFFFF" points="1112.92,965.615 1129.795,961.68 1133.741,944.795 1137.676,961.68 1154.561,965.615 
	1137.676,969.141 1133.741,986.436 1130.215,968.74 1112.92,965.615 "/>
<path fill="#FFFFFF" d="M1125.655,965.615c0-4.453,3.623-8.076,8.086-8.076c4.453,0,8.076,3.623,8.076,8.076
	c0,4.463-3.623,8.086-8.076,8.086C1129.278,973.701,1125.655,970.078,1125.655,965.615"/>
</svg>
